<!-- Generated by IcoMoon.io -->
<svg version="1.1" xmlns="http://www.w3.org/2000/svg" width="640" height="640" viewBox="0 0 640 640">
<title></title>
<g id="icomoon-ignore">
</g>
<path fill="#ffffff" d="M0 64c0-35.2 28.8-64 64-64h512c35.346 0 64 28.654 64 64v0 512c0 35.346-28.654 64-64 64v0h-512c-35.346 0-64-28.654-64-64v0-512zM224 192v64c0 53.019 42.981 96 96 96s96-42.981 96-96v0-64c0-53.019-42.981-96-96-96s-96 42.981-96 96v0zM576 484.48c-73.191-43.051-161.227-68.481-255.201-68.481-0.281 0-0.562 0-0.843 0.001h0.044c-93.12 0-180.8 24.96-256 68.48v91.52h512v-91.52z"></path>
</svg>
