<?xml version="1.0" encoding="utf-8"?>
<!-- Generator: Adobe Illustrator 16.0.0, SVG Export Plug-In . SVG Version: 6.00 Build 0)  -->
<!DOCTYPE svg PUBLIC "-//W3C//DTD SVG 1.1//EN" "http://www.w3.org/Graphics/SVG/1.1/DTD/svg11.dtd">
<svg version="1.1" id="Layer_2" xmlns="http://www.w3.org/2000/svg" xmlns:xlink="http://www.w3.org/1999/xlink" x="0px" y="0px"
	 width="288px" height="288px" viewBox="0 0 288 288" enable-background="new 0 0 288 288" xml:space="preserve">
<path fill="#fff" d="M144,268.643c75.575,0,137.215-30.679,137.215-68.259c0-27.493-32.994-51.271-80.268-62.077
	c-0.28-6.934,0.569-17.193-4.472-28.497c-7.332-16.515-23.514-34.947-36.606-53.139c-13.055-18.115-10.054-31.599-10.829-37.313
	c-5.803,3.618-20.226,18.767-12.925,44.601c7.238,25.61,34.195,53.879,42.513,68.585c8.314,14.729,6.934,28.202,4.548,36.505
	c-2.389,8.3-6.894,11.708-10.596,14.088c0.253-5.51,0.062-12.979-3.32-20.978c-3.385-7.992-19.781-27.095-31.717-41.159
	c-11.902-14.058-23.47-35.134-18.272-51.9c-5.137,3.132-16.115,16.893-15.52,32.945c0.562,16.05,13.936,37.811,22.183,48.101
	c8.27,10.285,22.638,30.885,25.473,42.236c2.829,11.343,1.817,19.444-0.616,25.307c-2.03,4.862-8.908,10.335-8.908,10.335
	s0.621-7.91-2.221-13.979c-2.826-6.069-35.662-50.618-38.892-55.285c-2.966-4.259-10.657-13.079-10.236-21.219
	c-49.143,10.403-83.747,34.69-83.747,62.844C6.786,237.964,68.425,268.643,144,268.643L144,268.643z"/>
</svg>
