<!-- Generated by IcoMoon.io -->
<svg version="1.1" xmlns="http://www.w3.org/2000/svg" width="1024" height="1024" viewBox="0 0 1024 1024">
<title></title>
<g id="icomoon-ignore">
</g>
<path d="M442.112 191.648l-249.12 1.472 0.096 247.52 82.88-82.912 110.528 110.528 85.28-85.28-110.496-110.528 80.832-80.8zM386.528 555.2l-110.528 110.56-82.88-82.944-0.096 249.568 249.12-0.576-80.832-80.8 110.528-110.496-85.312-85.312zM637.504 468.256l110.496-110.528 82.88 82.912 0.128-247.52-249.12-1.472 80.832 80.8-110.528 110.528 85.312 85.28zM748 665.76l-110.496-110.56-85.312 85.312 110.528 110.496-80.832 80.8 249.12 0.576-0.128-249.568-82.88 82.944z"></path>
</svg>
